<svg width="128" height="128" viewBox="0 0 128 128" fill="none" xmlns="http://www.w3.org/2000/svg">
  <circle cx="64" cy="64" r="60" fill="url(#glow)" opacity="0.3"/>

  <path d="M35 85 L93 85 L88 95 L40 95 Z" fill="#4A4A4A" stroke="#2A2A2A" stroke-width="2"/>
  <path d="M40 65 L88 65 L93 85 L35 85 Z" fill="#5A5A5A" stroke="#2A2A2A" stroke-width="2"/>
  <path d="M45 55 L83 55 L88 65 L40 65 Z" fill="#6A6A6A" stroke="#2A2A2A" stroke-width="2"/>

  <rect x="50" y="25" width="35" height="20" rx="3" fill="url(#hammerGrad)" stroke="#2A2A2A" stroke-width="2"/>
  <rect x="48" y="30" width="3" height="10" fill="#8B7355"/>

  <rect x="35" y="38" width="8" height="35" rx="2" fill="#8B7355" stroke="#6B5335" stroke-width="1.5" transform="rotate(-35 39 55)"/>

  <circle cx="85" cy="35" r="3" fill="#FFD700" opacity="0.8"/>
  <circle cx="90" cy="45" r="2" fill="#FFA500" opacity="0.7"/>
  <circle cx="78" cy="30" r="2" fill="#FFD700" opacity="0.9"/>
  <path d="M95 40 L97 42 L95 44 L93 42 Z" fill="#FFD700"/>

  <ellipse cx="64" cy="70" rx="25" ry="8" fill="url(#fireGlow)" opacity="0.5"/>

  <defs>
    <radialGradient id="glow" cx="50%" cy="50%">
      <stop offset="0%" stop-color="#FF8C00"/>
      <stop offset="100%" stop-color="#FF4500" stop-opacity="0"/>
    </radialGradient>

    <linearGradient id="hammerGrad" x1="0%" y1="0%" x2="0%" y2="100%">
      <stop offset="0%" stop-color="#7A7A7A"/>
      <stop offset="50%" stop-color="#5A5A5A"/>
      <stop offset="100%" stop-color="#4A4A4A"/>
    </linearGradient>

    <radialGradient id="fireGlow" cx="50%" cy="50%">
      <stop offset="0%" stop-color="#FFD700"/>
      <stop offset="50%" stop-color="#FF8C00"/>
      <stop offset="100%" stop-color="#FF4500" stop-opacity="0"/>
    </radialGradient>
  </defs>
</svg>
